<?xml version="1.0" standalone="no"?>
<!DOCTYPE svg PUBLIC "-//W3C//DTD SVG 20010904//EN"
 "http://www.w3.org/TR/2001/REC-SVG-20010904/DTD/svg10.dtd">
<svg version="1.0" xmlns="http://www.w3.org/2000/svg"
 width="320.000000pt" height="320.000000pt" viewBox="0 0 320.000000 320.000000"
 preserveAspectRatio="xMidYMid meet">
<metadata>
Created by potrace 1.14, written by Peter Selinger 2001-2017
</metadata>
<g transform="translate(0.000000,320.000000) scale(0.100000,-0.100000)"
fill="#000000" stroke="none">
<path d="M2130 3158 c71 -39 170 -128 234 -208 18 -23 16 -18 -6 14 -46 68
-155 166 -226 204 -33 18 -64 32 -68 32 -5 0 25 -19 66 -42z"/>
<path d="M1675 3050 c27 -27 51 -50 54 -50 3 0 -17 23 -44 50 -27 28 -51 50
-54 50 -3 0 17 -22 44 -50z"/>
<path d="M1230 3029 c-280 -224 -444 -493 -455 -744 l-4 -90 9 90 c22 211 124
413 302 601 63 66 102 95 82 62 -4 -7 2 -5 14 6 12 10 20 22 19 26 -1 4 24 28
56 54 31 26 57 49 57 52 0 7 -1 6 -80 -57z"/>
<path d="M1319 2993 c-13 -16 -12 -17 4 -4 9 7 17 15 17 17 0 8 -8 3 -21 -13z"/>
<path d="M1755 2953 c15 -24 30 -43 32 -43 7 0 -31 61 -46 73 -8 7 -2 -7 14
-30z"/>
<path d="M1279 2943 c-13 -16 -12 -17 4 -4 9 7 17 15 17 17 0 8 -8 3 -21 -13z"/>
<path d="M1908 2925 c62 -78 73 -89 44 -45 -16 25 -40 54 -53 65 -15 13 -12 7
9 -20z"/>
<path d="M2345 2900 c13 -30 30 -87 36 -125 13 -72 5 -170 -12 -160 -5 4 -9 1
-9 -4 0 -26 -18 -7 -40 40 -29 61 -42 72 -28 23 18 -66 2 -45 -26 34 -15 42
-34 88 -42 102 -17 27 -17 28 22 -82 50 -138 59 -208 59 -438 0 -118 2 -204 3
-190 2 14 11 34 20 44 10 11 11 16 4 12 -10 -6 -12 10 -10 73 2 88 11 98 40
40 32 -62 24 -116 -30 -188 -19 -25 -27 -30 -33 -20 -6 10 -9 7 -9 -10 0 -42
-44 -193 -51 -175 -7 21 -37 -135 -44 -228 -6 -80 1 -58 15 55 7 48 16 87 21
87 12 0 81 -150 81 -177 0 -16 -25 -48 -79 -100 -44 -43 -94 -97 -111 -121
-30 -42 -31 -43 -42 -21 -7 12 -25 56 -40 99 l-28 77 35 17 c19 9 32 20 28 25
-5 10 11 24 31 27 6 1 21 -22 33 -51 12 -30 29 -59 37 -66 12 -10 14 -4 13 37
l-2 49 -6 -40 -6 -40 -24 60 c-33 87 -58 205 -44 213 6 4 14 24 18 45 6 32 5
36 -10 31 -15 -6 -15 -4 0 32 30 68 27 81 -4 19 -32 -65 -36 -79 -22 -70 6 3
6 -7 0 -27 -5 -18 -9 -47 -9 -64 0 -25 -12 -42 -73 -96 l-73 -66 -33 -109
c-39 -128 -56 -160 -76 -143 -11 9 -11 18 -4 38 6 14 7 37 4 50 -6 24 23 132
36 132 4 0 10 -15 12 -32 2 -18 3 -9 1 20 -3 29 -12 74 -23 101 l-18 48 48 27
c27 15 52 32 56 39 4 7 -6 3 -22 -7 -17 -11 -61 -38 -99 -59 l-70 -39 -120 27
c-199 45 -235 69 -293 193 -18 40 -37 70 -43 67 -6 -4 -7 1 -3 11 5 13 3 15
-7 9 -9 -5 -11 -4 -6 3 4 6 -15 40 -42 74 -55 70 -66 90 -76 132 l-7 30 20
-25 21 -24 -5 25 c-3 14 -9 45 -15 70 -16 75 -11 88 14 34 13 -28 30 -55 37
-59 7 -5 6 1 -3 14 -15 21 -15 25 0 42 10 11 17 25 17 32 0 23 40 13 43 -10 2
-13 7 -23 12 -23 5 0 7 -6 4 -14 -8 -22 8 -26 45 -10 23 10 31 19 27 29 -3 8
-8 37 -11 63 -3 26 -8 58 -11 71 -3 13 -2 72 2 130 l7 106 13 -65 c14 -74 47
-167 69 -196 8 -10 2 13 -14 51 -46 111 -64 219 -58 349 3 61 8 122 11 136 l7
25 -12 -25 c-6 -14 -14 -69 -16 -122 -3 -54 -10 -98 -14 -98 -5 0 -9 6 -10 13
0 6 -4 2 -9 -9 -12 -31 -22 -354 -11 -354 5 0 12 10 14 23 4 19 4 18 6 -5 1
-23 -3 -28 -23 -28 -24 0 -23 -2 -60 145 -3 11 -3 -9 -1 -45 3 -36 7 -75 11
-86 4 -15 0 -23 -11 -28 -26 -10 -33 0 -57 77 -19 58 -23 94 -22 185 0 61 -1
111 -2 109 -12 -11 -65 -292 -71 -372 -5 -54 -12 -100 -18 -102 -14 -4 -43 71
-57 146 l-12 63 -11 -40 c-7 -22 -15 -88 -19 -147 -4 -59 -14 -140 -21 -179
-7 -39 -17 -108 -21 -154 -3 -45 -9 -80 -12 -77 -4 3 -9 70 -12 148 l-7 142
-1 -111 c-2 -121 15 -242 30 -208 6 15 7 13 4 -9 -2 -15 -1 -25 2 -22 3 3 6
47 7 98 2 93 23 224 52 331 l16 59 15 -49 c8 -27 14 -80 14 -119 0 -68 1 -69
8 -20 l7 50 1 -51 c1 -28 -1 -80 -5 -115 l-8 -64 -6 65 c-3 36 -5 0 -3 -80 2
-90 -1 -139 -6 -130 -8 12 -10 12 -10 -4 0 -17 -65 -86 -81 -86 -4 0 8 23 26
52 34 50 72 145 63 154 -3 2 -10 -15 -17 -38 -20 -66 -68 -144 -114 -183 -33
-29 -36 -34 -14 -24 15 7 27 16 27 21 0 5 4 7 9 4 11 -7 90 50 98 71 4 10 12
-8 19 -46 27 -132 84 -215 181 -265 42 -21 54 -21 23 1 -14 10 -27 17 -30 16
-18 -6 -22 159 -5 237 9 41 16 80 17 87 1 7 5 10 9 7 4 -2 22 33 41 77 l33 82
6 -79 c7 -86 24 -160 39 -169 6 -3 7 1 4 10 -4 8 -3 36 1 60 l6 45 40 -34 c22
-18 60 -39 85 -46 52 -15 59 -22 44 -50 -14 -25 -4 -25 39 1 33 20 50 15 51
-15 0 -6 6 -2 13 8 12 16 16 16 55 3 40 -14 45 -14 88 8 l46 23 15 -36 c9 -21
15 -46 16 -57 0 -46 -61 -171 -76 -154 -3 2 -17 40 -33 83 -16 44 -36 81 -44
83 -9 3 -11 1 -5 -4 6 -4 16 -20 22 -35 11 -24 9 -29 -23 -57 -38 -35 -41 -53
-20 -123 l15 -47 -45 -7 c-25 -3 -47 -4 -50 -1 -3 3 2 22 11 43 20 45 47 155
41 161 -2 3 -7 -4 -10 -14 -5 -15 -17 -18 -85 -18 -71 0 -82 -3 -106 -25 -48
-44 -74 -114 -99 -260 -11 -70 -14 -75 -39 -78 -47 -6 -59 -38 -64 -179 -5
-113 -9 -135 -33 -183 -15 -30 -35 -77 -45 -104 -18 -47 -19 -48 -34 -29 -9
11 -47 74 -86 141 -45 78 -76 121 -87 122 -27 0 -48 29 -49 68 -1 27 -3 30 -6
12 -3 -13 3 -50 13 -82 l17 -58 -24 -26 c-13 -14 -49 -48 -80 -75 l-56 -48
-36 69 -36 69 35 11 c53 18 35 21 -21 5 -65 -20 -74 -19 -123 12 -35 23 -39
29 -25 35 15 6 15 7 -4 7 -39 2 -32 -14 21 -49 52 -33 53 -34 45 -69 -14 -62
-31 -449 -21 -467 5 -9 7 -25 5 -35 -3 -12 12 -36 44 -71 28 -29 52 -60 56
-70 3 -9 20 -19 38 -23 62 -14 130 -55 141 -86 l10 -29 138 0 c101 0 140 3
143 13 4 9 6 9 6 0 1 -9 24 -13 79 -13 l79 0 17 108 c10 59 25 139 33 177 8
39 25 128 38 200 44 242 99 461 186 732 22 69 35 93 50 98 24 8 64 -24 42 -32
-8 -3 -13 -24 -13 -55 0 -42 -8 -65 -55 -146 -61 -107 -96 -202 -124 -342 -18
-91 -58 -370 -81 -570 -6 -52 -13 -112 -16 -132 -6 -38 -6 -38 31 -38 19 0 54
9 76 21 l41 20 22 -20 c12 -12 25 -21 29 -21 4 0 7 28 7 63 0 34 5 102 10 152
6 50 15 137 20 195 14 134 73 444 111 580 16 58 45 135 64 171 19 37 35 76 35
88 0 13 6 21 16 21 42 0 131 35 155 61 53 57 53 22 0 -75 -50 -91 -171 -359
-206 -456 -68 -191 -105 -420 -105 -651 l0 -149 375 0 c394 0 395 0 358 43
-17 20 -17 20 1 14 16 -6 18 -3 14 21 -2 16 1 33 6 38 8 7 11 -9 10 -53 l0
-63 312 0 312 0 7 48 c3 26 15 63 25 82 l18 35 10 -25 c5 -14 12 -34 15 -45 4
-19 5 -19 6 1 0 12 -4 36 -10 53 -9 24 -9 35 0 44 7 7 11 86 11 248 0 235 0
238 -24 266 -12 15 -51 69 -86 118 -35 50 -74 102 -88 118 -14 15 -22 27 -16
27 5 0 1 7 -9 14 -10 8 -21 31 -24 52 l-6 38 29 -28 c16 -15 68 -59 116 -99
47 -39 84 -75 82 -79 -3 -5 -14 -3 -25 2 -11 6 -17 15 -14 19 2 5 -3 15 -13
22 -15 13 -16 12 -3 -4 16 -20 3 -22 -22 -3 -11 9 -14 15 -6 18 7 2 6 8 -5 17
-14 12 -16 11 -9 -5 7 -18 6 -18 -21 -1 -15 10 -30 17 -32 14 -2 -2 35 -30 82
-61 47 -32 88 -55 91 -52 3 3 -2 8 -11 12 -9 3 -13 10 -10 15 3 5 10 7 15 4 5
-4 9 -2 9 2 0 5 -56 65 -123 134 -155 156 -175 188 -70 113 43 -31 94 -70 113
-88 54 -49 80 -70 80 -63 0 3 -87 82 -192 175 l-193 168 -23 71 c-12 39 -32
86 -45 104 -31 47 -100 81 -157 77 -44 -3 -48 0 -135 76 -50 43 -111 95 -137
114 l-46 35 13 36 c7 20 20 52 29 71 20 45 21 15 2 -58 -7 -29 -10 -52 -6 -52
15 0 61 59 84 109 20 44 25 49 28 30 1 -13 3 32 3 101 1 92 8 167 29 283 15
86 31 210 35 275 l8 117 -46 83 c-25 45 -65 104 -88 130 l-43 47 25 -55z
m-996 -602 c12 -33 0 -53 -26 -43 -6 2 -14 -1 -16 -8 -2 -7 -4 -1 -4 13 0 14
-3 32 -7 42 -7 15 1 21 36 27 3 0 11 -13 17 -31z m695 -675 c-17 -33 -40 -63
-54 -70 -23 -12 -23 -13 -4 -13 15 0 24 -10 32 -36 10 -34 9 -39 -21 -76 -34
-42 -102 -84 -112 -69 -3 5 0 30 7 55 8 29 15 41 20 33 4 -7 8 3 8 24 0 65 19
102 83 161 34 31 63 55 66 53 2 -3 -9 -30 -25 -62z m-476 -140 c-10 -2 -28 -2
-40 0 -13 2 -5 4 17 4 22 1 32 -1 23 -4z m52 -7 c0 -3 -4 -8 -10 -11 -5 -3
-10 -1 -10 4 0 6 5 11 10 11 6 0 10 -2 10 -4z m143 -36 c3 -11 1 -23 -4 -26
-5 -3 -9 6 -9 20 0 31 6 34 13 6z m-203 -4 c0 -2 -8 -10 -17 -17 -16 -13 -17
-12 -4 4 13 16 21 21 21 13z m253 -59 c-6 -29 -27 -52 -41 -43 -6 3 -13 17
-16 31 -5 20 0 31 21 49 25 22 29 23 34 7 4 -9 5 -29 2 -44z m-253 -40 c0 -2
-10 -12 -22 -23 l-23 -19 19 23 c18 21 26 27 26 19z m790 -47 c6 -11 8 -20 6
-20 -3 0 -10 9 -16 20 -6 11 -8 20 -6 20 3 0 10 -9 16 -20z m-840 6 c0 -2 -8
-10 -17 -17 -16 -13 -17 -12 -4 4 13 16 21 21 21 13z m690 -73 c0 -9 8 -11 26
-7 24 6 25 5 15 -14 -6 -12 -16 -24 -21 -27 -6 -4 -26 -37 -44 -73 -32 -63
-106 -146 -166 -186 -24 -16 -24 -16 -2 -16 12 0 22 -4 22 -9 0 -14 -36 -23
-59 -16 -29 9 -84 -42 -78 -72 4 -24 -8 -33 -16 -10 -9 25 16 54 93 107 44 30
80 60 80 67 0 6 6 18 14 26 13 12 13 18 0 42 -18 36 -18 37 9 33 15 -2 23 -11
24 -28 l3 -25 -10 24 c-15 34 -23 20 -9 -15 l11 -29 24 30 c14 18 21 37 18 48
-4 11 -1 17 8 15 9 -2 14 10 16 38 3 46 -16 71 -45 59 -17 -8 -17 -8 0 -12 26
-6 19 -48 -8 -48 -25 0 -31 33 -12 59 22 29 66 14 74 -25 8 -40 23 -18 23 33
0 43 -21 68 -56 68 -22 0 -24 -3 -19 -22 6 -19 5 -21 -6 -11 -9 9 -16 10 -26
2 -9 -8 -13 -8 -13 -1 0 6 5 14 10 17 8 5 7 11 0 20 -10 12 -5 13 24 8 33 -5
36 -4 29 13 -4 12 6 7 30 -16 20 -19 37 -40 37 -47z m163 2 c-3 -9 -8 -14 -10
-11 -3 3 -2 9 2 15 9 16 15 13 8 -4z m-1006 -72 c-3 -10 -5 -4 -5 12 0 17 2
24 5 18 2 -7 2 -21 0 -30z m304 -82 c-26 -36 -27 -55 -2 -22 23 31 64 35 87
10 16 -18 15 -20 -37 -43 -56 -25 -69 -25 -69 0 0 9 -5 12 -11 8 -7 -4 -1 12
11 34 13 23 28 42 33 42 4 0 -1 -13 -12 -29z m-394 -28 c-3 -10 -5 -4 -5 12 0
17 2 24 5 18 2 -7 2 -21 0 -30z m150 -75 c-3 -7 -5 -2 -5 12 0 14 2 19 5 13 2
-7 2 -19 0 -25z m247 -117 c16 -17 26 -36 23 -44 -3 -8 -27 -23 -52 -33 l-47
-18 -19 25 c-27 35 -23 57 14 79 42 26 48 25 81 -9z m-729 -84 c-9 -28 -46
-111 -82 -183 l-65 -131 -69 73 c-38 40 -69 79 -69 86 0 8 16 47 36 88 l35 74
20 -43 c22 -51 16 -63 -46 -97 -19 -10 -35 -22 -35 -27 0 -32 278 208 281 243
1 8 4 5 6 -8 2 -12 -3 -46 -12 -75z m1707 -177 l74 -85 -35 -87 c-30 -72 -47
-99 -100 -152 -36 -36 -67 -63 -71 -61 -3 2 -31 -18 -61 -45 l-54 -48 -3 45
c-2 29 6 71 22 119 30 87 89 293 107 377 14 67 0 74 121 -63z m-972 78 c0 -19
-2 -20 -10 -8 -13 19 -13 30 0 30 6 0 10 -10 10 -22z m-73 -65 l25 -32 -45
-22 c-38 -19 -48 -20 -61 -9 -22 18 -20 56 5 81 26 26 46 22 76 -18z m-430
-72 c-10 -12 -9 -13 2 -7 14 9 -10 -33 -37 -66 -12 -14 -12 -21 -3 -32 16 -20
5 -78 -24 -121 -13 -18 -20 -37 -17 -41 4 -4 1 -4 -5 0 -10 5 -7 17 12 44 34
50 34 114 0 147 -16 17 -20 25 -10 25 8 0 15 5 15 10 0 6 5 10 11 10 8 0 9 -4
0 -13 -10 -13 -6 -27 9 -27 13 0 30 51 30 87 0 34 1 35 14 17 11 -15 12 -22 3
-33z m220 -33 c-3 -7 -5 -2 -5 12 0 14 2 19 5 13 2 -7 2 -19 0 -25z m-427 18
c0 -2 -11 -6 -25 -8 -13 -3 -22 -1 -19 3 5 9 44 13 44 5z m51 -23 c13 -17 13
-17 -6 -3 -11 8 -22 16 -24 17 -2 2 0 3 6 3 6 0 17 -8 24 -17z m645 -19 c-3
-9 -6 -38 -6 -65 0 -27 -4 -49 -8 -49 -5 0 -22 20 -40 45 l-31 45 37 19 c45
25 56 26 48 5z m-489 -136 c-2 -24 -4 -7 -4 37 0 44 2 63 4 43 2 -21 2 -57 0
-80z m210 70 c-3 -7 -5 -2 -5 12 0 14 2 19 5 13 2 -7 2 -19 0 -25z m149 -45
l25 -42 -40 -21 c-22 -11 -43 -20 -46 -20 -3 0 -3 19 1 43 13 103 20 107 60
40z m-339 -25 c-3 -8 -6 -5 -6 6 -1 11 2 17 5 13 3 -3 4 -12 1 -19z m1213 -58
c0 -5 -4 -10 -10 -10 -5 0 -10 5 -10 10 0 6 5 10 10 10 6 0 10 -4 10 -10z
m-1345 -20 c-3 -5 -12 -10 -18 -10 -7 0 -6 4 3 10 19 12 23 12 15 0z m575 -46
c0 -15 -29 -18 -69 -7 -23 6 -23 6 10 24 35 18 59 11 59 -17z m-673 -16 c-3
-8 -6 -5 -6 6 -1 11 2 17 5 13 3 -3 4 -12 1 -19z m613 -5 c2 -2 -19 -3 -48 -1
-28 2 -52 6 -52 10 0 8 91 -1 100 -9z m47 -9 c-3 -3 -12 -4 -19 -1 -8 3 -5 6
6 6 11 1 17 -2 13 -5z m-54 -11 c-7 -2 -21 -2 -30 0 -10 3 -4 5 12 5 17 0 24
-2 18 -5z m54 -9 c-3 -3 -12 -4 -19 -1 -8 3 -5 6 6 6 11 1 17 -2 13 -5z m-145
-76 c-31 -20 -37 -12 -28 38 l7 34 24 -27 23 -28 -26 -17z m1065 -45 c-2 -21
-4 -6 -4 32 0 39 2 55 4 38 2 -18 2 -50 0 -70z m-1647 82 c0 -11 -40 -24 -57
-18 -14 6 -11 9 17 14 19 4 36 7 38 8 1 0 2 -1 2 -4z m915 -24 c0 -16 -3 -27
-7 -24 -13 7 -7 53 6 53 1 0 1 -13 1 -29z m55 -1 c0 -10 -3 -21 -7 -23 -5 -3
-8 8 -8 23 0 15 3 26 8 23 4 -2 7 -13 7 -23z"/>
<path d="M1950 1576 c0 -2 11 -6 25 -8 13 -3 22 -1 19 3 -5 9 -44 13 -44 5z"/>
<path d="M1904 1378 l-19 -23 23 19 c12 11 22 21 22 23 0 8 -8 2 -26 -19z"/>
<path d="M2210 1195 c-7 -9 -11 -18 -8 -20 3 -3 11 1 18 10 7 9 11 18 8 20 -3
3 -11 -1 -18 -10z"/>
<path d="M2097 1154 c-8 -8 1 -24 14 -24 5 0 9 7 9 15 0 15 -12 20 -23 9z"/>
<path d="M1988 883 c7 -3 16 -2 19 1 4 3 -2 6 -13 5 -11 0 -14 -3 -6 -6z"/>
<path d="M1236 2878 c-28 -48 -66 -142 -66 -161 1 -7 13 20 29 59 15 40 38 88
50 108 13 20 20 36 17 36 -3 0 -16 -19 -30 -42z"/>
<path d="M1096 2838 c-39 -70 -79 -158 -74 -162 1 -2 28 48 59 111 31 62 55
113 53 113 -1 0 -19 -28 -38 -62z"/>
<path d="M1806 2868 c36 -69 54 -144 61 -252 5 -80 9 -103 15 -81 4 18 5 3 3
-40 -3 -47 -1 -62 4 -45 9 25 9 25 11 -5 l2 -30 10 35 c5 19 8 55 6 80 -2 31
1 47 9 47 6 0 9 -7 5 -15 -3 -10 -1 -13 6 -8 6 3 14 1 18 -5 4 -8 3 -9 -4 -5
-23 14 -12 -13 24 -61 55 -72 55 -72 50 -20 -3 26 -3 47 -2 47 2 0 10 -8 17
-17 12 -14 12 -16 0 -9 -9 6 -12 4 -9 -5 3 -8 11 -14 19 -14 8 -1 13 -6 11
-13 -3 -16 -5 -17 82 23 78 35 106 42 106 26 0 -5 -6 -8 -12 -7 -22 2 -178
-68 -178 -80 0 -6 6 -16 13 -22 20 -17 12 -487 -8 -519 -8 -12 -11 -24 -6 -27
20 -13 101 297 101 388 0 43 -11 3 -25 -85 -8 -52 -21 -119 -29 -149 l-15 -55
0 135 c-1 174 9 300 23 300 20 0 131 56 145 74 11 13 11 22 3 41 -14 31 -26
31 -97 0 l-57 -26 6 123 c4 68 2 139 -3 158 l-9 35 -1 -30 c-1 -16 -6 -48 -12
-70 l-12 -40 -12 35 c-18 51 -63 137 -75 145 -6 4 4 -24 23 -62 41 -81 56
-127 57 -168 0 -36 -2 -65 -6 -65 -2 0 -19 28 -39 63 -20 34 -33 51 -29 37 8
-32 6 -29 -51 55 -27 39 -51 72 -54 75 -4 3 -26 35 -50 73 -46 71 -62 88 -35
35z m101 -370 c-2 -13 -4 -3 -4 22 0 25 2 35 4 23 2 -13 2 -33 0 -45z m93 -1
c4 1 10 -9 13 -22 6 -32 -11 -19 -36 27 -14 26 -15 29 -2 13 9 -11 20 -19 25
-18z"/>
<path d="M2196 2857 c3 -10 9 -15 12 -12 3 3 0 11 -7 18 -10 9 -11 8 -5 -6z"/>
<path d="M1564 2820 c3 -14 8 -65 11 -115 7 -105 31 -282 41 -309 6 -15 4 -17
-6 -11 -9 5 -11 4 -6 -3 14 -23 28 -12 22 16 -16 72 -36 207 -36 247 0 26 5
21 40 -43 61 -113 119 -192 138 -191 15 0 15 1 -1 7 -10 4 -26 21 -37 37 -22
33 -26 50 -10 40 6 -3 10 -1 10 4 0 6 -8 11 -18 11 -28 0 -77 95 -106 203 -25
95 -52 164 -42 107z"/>
<path d="M2485 2740 c14 -28 23 -55 20 -60 -3 -5 6 -31 19 -57 42 -80 59 -166
60 -298 0 -131 -11 -185 -52 -255 -23 -39 -27 -42 -30 -22 -4 29 47 184 58
177 15 -9 23 64 14 118 l-9 52 -27 -110 c-15 -60 -45 -177 -68 -260 -22 -82
-39 -157 -39 -165 1 -19 12 14 35 103 10 39 20 63 25 56 10 -17 64 60 86 124
14 41 18 81 17 187 -1 116 -5 148 -28 224 -27 89 -89 236 -101 236 -3 0 6 -23
20 -50z"/>
<path d="M1740 2633 c0 -5 6 -31 14 -60 13 -47 12 -52 -3 -56 -9 -2 -2 -5 16
-8 18 -3 30 -2 27 3 -3 4 0 8 7 8 9 0 8 4 -3 13 -8 6 -23 33 -33 60 -16 44
-25 58 -25 40z"/>
<path d="M991 2594 c0 -11 3 -14 6 -6 3 7 2 16 -1 19 -3 4 -6 -2 -5 -13z"/>
<path d="M1525 2555 c2 -22 5 -51 6 -65 0 -22 1 -23 8 -6 6 16 10 10 21 -27 7
-26 16 -47 21 -47 5 0 6 -8 3 -17 -5 -14 -4 -15 4 -4 7 9 2 30 -16 70 -13 31
-31 74 -39 96 l-13 40 5 -40z"/>
<path d="M981 2554 c0 -11 3 -14 6 -6 3 7 2 16 -1 19 -3 4 -6 -2 -5 -13z"/>
<path d="M971 2514 c0 -11 3 -14 6 -6 3 7 2 16 -1 19 -3 4 -6 -2 -5 -13z"/>
<path d="M1410 2510 c0 -19 32 -90 41 -90 13 0 12 5 -12 55 -21 44 -29 54 -29
35z"/>
<path d="M1775 2475 c9 -39 23 -55 49 -54 21 2 21 2 -1 6 -13 3 -28 18 -38 41
-14 33 -15 34 -10 7z"/>
<path d="M1644 2474 c-17 -14 -17 -15 -1 -10 10 3 23 6 28 6 5 0 9 5 9 10 0
14 -13 12 -36 -6z"/>
<path d="M961 2464 c0 -11 3 -14 6 -6 3 7 2 16 -1 19 -3 4 -6 -2 -5 -13z"/>
<path d="M2040 2425 c0 -8 2 -15 4 -15 2 0 6 7 10 15 3 8 1 15 -4 15 -6 0 -10
-7 -10 -15z"/>
<path d="M1856 2396 c-47 -18 -102 -69 -109 -101 -3 -20 3 -17 40 21 25 24 52
44 60 44 13 0 13 -3 3 -15 -10 -12 -10 -15 4 -15 21 0 21 -46 0 -58 -14 -8
-14 -13 5 -50 26 -50 50 -65 95 -56 45 8 76 43 83 93 3 22 9 38 13 36 4 -3 11
7 16 23 17 60 12 73 -30 78 -113 13 -144 13 -180 0z m183 -75 c-2 -6 -12 4
-22 22 l-18 32 21 -21 c13 -12 21 -27 19 -33z m-109 -56 c0 -8 5 -15 10 -15 6
0 10 5 10 11 0 7 7 8 18 4 9 -4 24 -7 33 -7 11 0 15 -6 11 -23 -10 -54 -73
-78 -115 -45 -32 26 -34 43 -7 70 24 24 40 26 40 5z"/>
<path d="M951 2364 c0 -11 3 -14 6 -6 3 7 2 16 -1 19 -3 4 -6 -2 -5 -13z"/>
<path d="M1518 2353 c6 -2 18 -2 25 0 6 3 1 5 -13 5 -14 0 -19 -2 -12 -5z"/>
<path d="M1468 2343 c6 -2 18 -2 25 0 6 3 1 5 -13 5 -14 0 -19 -2 -12 -5z"/>
<path d="M935 2300 c-4 -23 -5 -43 -2 -46 2 -3 7 14 11 37 4 23 5 44 2 46 -2
2 -7 -14 -11 -37z"/>
<path d="M2162 2285 c0 -16 2 -22 5 -12 2 9 2 23 0 30 -3 6 -5 -1 -5 -18z"/>
<path d="M922 2220 c0 -14 2 -19 5 -12 2 6 2 18 0 25 -3 6 -5 1 -5 -13z"/>
<path d="M1258 2214 c-38 -20 -36 -28 2 -9 17 9 30 18 30 20 0 7 -1 6 -32 -11z"/>
<path d="M1300 2203 c-25 -9 -62 -46 -71 -71 -7 -19 -4 -27 19 -47 27 -25 56
-35 34 -13 -19 19 -14 66 8 88 21 21 77 29 65 9 -4 -6 1 -17 11 -24 16 -12 17
-17 7 -34 -7 -12 -13 -23 -13 -26 0 -15 75 -85 92 -85 29 0 58 18 58 36 0 12
-5 11 -18 -6 -25 -31 -66 -21 -88 21 -14 29 -14 33 0 47 14 14 18 14 42 -9 19
-16 25 -19 21 -8 -4 13 -1 16 13 12 11 -3 21 -12 23 -22 3 -12 5 -10 6 5 1 29
-38 84 -75 106 -33 19 -109 31 -134 21z"/>
<path d="M782 2175 c0 -11 3 -29 8 -40 11 -25 11 1 0 35 -6 20 -8 21 -8 5z"/>
<path d="M912 2160 c0 -19 2 -27 5 -17 2 9 2 25 0 35 -3 9 -5 1 -5 -18z"/>
<path d="M2058 1812 c4 -11 1 -13 -8 -7 -9 5 -11 4 -6 -3 4 -7 2 -12 -5 -12
-7 0 -10 -3 -6 -6 3 -4 -10 -27 -29 -53 l-36 -46 41 45 c53 56 76 97 56 97 -7
0 -11 -7 -7 -15z"/>
<path d="M1679 1611 c-13 -11 -22 -21 -19 -23 3 -2 16 6 29 19 29 28 22 30
-10 4z"/>
<path d="M2085 1600 c-3 -5 -1 -10 4 -10 6 0 11 5 11 10 0 6 -2 10 -4 10 -3 0
-8 -4 -11 -10z"/>
<path d="M393 1525 c-3 -9 -3 -18 -1 -21 3 -3 8 4 11 16 6 23 -1 27 -10 5z"/>
<path d="M450 1523 c0 -4 12 -20 27 -35 15 -16 54 -68 88 -115 53 -76 68 -91
130 -125 39 -21 75 -38 80 -38 6 0 -25 19 -68 43 -69 38 -84 51 -129 117 -49
72 -128 167 -128 153z"/>
<path d="M1857 1437 l-17 -32 20 24 c17 20 26 41 18 41 -2 0 -11 -15 -21 -33z"/>
<path d="M411 1458 c-2 -17 24 -70 71 -141 41 -63 50 -82 41 -95 -6 -10 -19
-16 -29 -15 -11 1 -13 0 -6 -3 6 -3 10 -10 6 -15 -10 -17 5 -9 26 13 11 12 20
27 20 34 0 6 -21 42 -46 78 -25 37 -54 86 -64 109 -10 23 -19 39 -19 35z"/>
<path d="M174 1299 c-3 -6 -1 -16 5 -22 9 -9 11 -8 6 5 -5 13 0 17 27 21 l33
4 -32 1 c-17 1 -35 -3 -39 -9z"/>
<path d="M304 1275 c33 -14 61 -23 63 -21 5 4 -96 46 -111 46 -6 -1 16 -12 48
-25z"/>
<path d="M202 1244 c9 -10 32 -28 50 -38 39 -22 29 -11 -27 29 -23 17 -33 21
-23 9z"/>
<path d="M400 1235 c14 -8 30 -14 35 -14 6 0 -1 6 -15 14 -14 8 -29 14 -35 14
-5 0 1 -6 15 -14z"/>
<path d="M663 1203 c15 -2 37 -2 50 0 12 2 0 4 -28 4 -27 0 -38 -2 -22 -4z"/>
<path d="M568 1193 c12 -2 30 -2 40 0 9 3 -1 5 -23 4 -22 0 -30 -2 -17 -4z"/>
<path d="M814 1185 c11 -8 23 -15 26 -15 11 0 33 -47 40 -87 6 -32 8 -33 9
-10 2 46 -24 94 -61 112 -28 14 -30 14 -14 0z"/>
<path d="M310 1176 c0 -2 7 -7 16 -10 8 -3 12 -2 9 4 -6 10 -25 14 -25 6z"/>
<path d="M515 1150 c10 -11 20 -20 23 -20 3 0 -3 9 -13 20 -10 11 -20 20 -23
20 -3 0 3 -9 13 -20z"/>
<path d="M395 1132 c27 -15 48 -31 45 -36 -5 -9 70 -40 77 -32 3 2 -6 7 -19
11 -13 4 -34 17 -48 30 -25 23 -82 55 -97 55 -4 0 14 -13 42 -28z"/>
<path d="M573 1118 c7 -4 41 -8 77 -8 70 0 81 -4 98 -35 11 -19 11 -19 9 2 -1
14 -11 26 -27 32 -30 12 -174 20 -157 9z"/>
<path d="M370 1065 c-18 -21 -3 -51 34 -69 19 -9 39 -16 45 -16 6 0 11 -8 12
-17 0 -11 3 -13 6 -5 2 6 17 12 31 13 19 1 15 4 -16 10 -88 17 -134 57 -98 85
11 8 15 14 9 14 -6 0 -16 -7 -23 -15z"/>
<path d="M550 1044 c14 -10 31 -24 38 -32 6 -9 12 -11 12 -5 0 12 -52 53 -66
53 -5 0 3 -7 16 -16z"/>
<path d="M891 1024 c0 -11 3 -14 6 -6 3 7 2 16 -1 19 -3 4 -6 -2 -5 -13z"/>
<path d="M2967 1029 c7 -7 15 -10 18 -7 3 3 -2 9 -12 12 -14 6 -15 5 -6 -5z"/>
<path d="M2970 1006 c0 -2 8 -10 18 -17 15 -13 16 -12 3 4 -13 16 -21 21 -21
13z"/>
<path d="M3009 996 c10 -11 9 -16 -5 -24 -12 -7 -13 -11 -4 -17 6 -4 17 -2 23
4 7 7 15 7 26 -1 9 -7 3 2 -13 20 -29 32 -49 45 -27 18z"/>
<path d="M608 983 c7 -3 16 -2 19 1 4 3 -2 6 -13 5 -11 0 -14 -3 -6 -6z"/>
<path d="M666 923 c-6 -14 -5 -15 5 -6 7 7 10 15 7 18 -3 3 -9 -2 -12 -12z"/>
<path d="M470 921 c0 -10 29 -36 34 -30 1 2 -6 12 -16 22 -10 9 -18 13 -18 8z"/>
<path d="M603 903 c9 -2 23 -2 30 0 6 3 -1 5 -18 5 -16 0 -22 -2 -12 -5z"/>
</g>
</svg>
